# xmcd CD database file
#
# Track frame offsets:
#	150
#	17869
#	29622
#	42995
#	58200
#	70700
#	99685
#	112506
#	131207
#	144263
#	160197
#	192169
#	204486
#	217198
#	235963
#	250433
#
# Disc length: 3648 seconds
#
# Revision: 3
# Processed by: cddbd v1.4PL0 Copyright (c) Steve Scherf et al.
# Submitted via: CDex 1.50
#
DISCID=ed0e3e10
DTITLE=Various Artist - 96 Prosent Countryfest CD1
DYEAR=2002
DGENRE=Country
TTITLE0=Diverse artister - Countryfest-medley nr.1
TTITLE1=Teddy Nelson - Baby I´m ready
TTITLE2=Lillian Askeland and Ottar Big Hand - Du er sol du er regn
TTITLE3=Ottar Big Hand - The country hall of fame
TTITLE4=Hakon Banken - Sharo Løvlund
TTITLE5=Diverse artister - Countryfest-medley nr.2
TTITLE6=Ottar Big Hand - Mot ukjent sted
TTITLE7=Cato Sanden - Skål for dette landet
TTITLE8=Lillian Askeland and Carl Hjälmby - Drammen
TTITLE9=Lars Børke - Gambleren
TTITLE10=Diverse artister - Countryfest-medley nr.3
TTITLE11=Lillian Askeland - US of A
TTITLE12=Bjøro Håland - Mest av alt
TTITLE13=K.M. Myrland - A.a.´s søndagmorgen
TTITLE14=Benny Borg - El Sordo
TTITLE15=Diverse artister - Countryfest-medley nr.4
EXTD=YEAR: 2002
EXTT0=
EXTT1=
EXTT2=
EXTT3=
EXTT4=
EXTT5=
EXTT6=
EXTT7=
EXTT8=
EXTT9=
EXTT10=
EXTT11=
EXTT12=
EXTT13=
EXTT14=
EXTT15=
PLAYORDER=
